<svg width="50" height="50" viewBox="0 0 50 50" fill="none" xmlns="http://www.w3.org/2000/svg">
<g clip-path="url(#clip0_632_2279)">
<path d="M8.28501 31.7891L2.3967 39.3591C1.86209 40.0464 2.40034 41.0412 3.26814 40.9697L9.55798 40.4515C10.0759 40.4088 10.5402 40.77 10.6263 41.2825L11.6718 47.5064C11.8161 48.3651 12.9127 48.642 13.4473 47.9547L19.3356 40.3847M42.0491 31.7891L47.9374 39.3591C48.472 40.0464 47.9337 41.0412 47.0659 40.9697L40.7761 40.4515C40.2582 40.4088 39.7939 40.77 39.7078 41.2825L38.6623 47.5064C38.5181 48.3651 37.4214 48.642 36.8868 47.9547L30.9985 40.3847" stroke="#131010" stroke-width="3"/>
<path d="M44.5 21C44.5 31.7696 35.7696 40.5 25 40.5C14.2304 40.5 5.5 31.7696 5.5 21C5.5 10.2304 14.2304 1.5 25 1.5C35.7696 1.5 44.5 10.2304 44.5 21Z" stroke="#131010" stroke-width="3"/>
<path d="M38.5 21C38.5 28.4558 32.4558 34.5 25 34.5C17.5442 34.5 11.5 28.4558 11.5 21C11.5 13.5442 17.5442 7.5 25 7.5C32.4558 7.5 38.5 13.5442 38.5 21Z" stroke="#131010" stroke-width="3"/>
<path d="M24.9998 12.9868L27.1467 16.6728C27.4293 17.1581 27.9029 17.5021 28.4517 17.6209L32.6207 18.5237L29.7785 21.7046C29.4044 22.1233 29.2235 22.68 29.2801 23.2387L29.7098 27.4827L25.8063 25.7625C25.2925 25.5361 24.7071 25.5361 24.1933 25.7625L20.2898 27.4827L20.7195 23.2387C20.7761 22.68 20.5952 22.1233 20.2211 21.7046L17.3789 18.5237L21.5479 17.6209C22.0967 17.5021 22.5703 17.1581 22.8529 16.6728L24.9998 12.9868Z" stroke="#131010" stroke-width="2"/>
</g>
<defs>
<clipPath id="clip0_632_2279">
<rect width="50" height="50" fill="white"/>
</clipPath>
</defs>
</svg>
