<svg width="49" height="50" viewBox="0 0 49 50" fill="none" xmlns="http://www.w3.org/2000/svg">
<path d="M13 6.33084C6.9895 10.1431 3 16.8557 3 24.5C3 35.9431 11.9397 45.2982 23.2161 45.9623L25.9139 48.9599C25.446 48.9865 24.9746 49 24.5 49C10.969 49 0 38.031 0 24.5C0 15.924 4.40632 8.37721 11.0785 4H13V6.33084Z" fill="#131010"/>
<path d="M23.5 0.0200366V3.02284C23.8314 3.00767 24.1648 3 24.5 3C35.6786 3 44.8646 11.5312 45.9024 22.438L48.9943 25.0352C48.9981 24.8573 49 24.6789 49 24.5C49 10.969 38.031 0 24.5 0C24.1651 0 23.8317 0.00672138 23.5 0.0200366Z" fill="#131010"/>
<path d="M0 4H13V17H9V8H0V4Z" fill="#131010"/>
<path d="M27.5 8.5H23.5V24H12.5V27.5H27.5V8.5Z" fill="#131010"/>
<path d="M25.5 37.5L23 40L33 49.5L49 32L46.5 29.5L33 44.5L25.5 37.5Z" fill="#131010"/>
</svg>
