<svg width="50" height="50" viewBox="0 0 50 50" fill="none" xmlns="http://www.w3.org/2000/svg">
<g clip-path="url(#clip0_632_2284)">
<path d="M25 48.5C37.9787 48.5 48.5 37.9787 48.5 25C48.5 12.0213 37.9787 1.5 25 1.5C12.0213 1.5 1.5 12.0213 1.5 25C1.5 37.9787 12.0213 48.5 25 48.5Z" stroke="#131010" stroke-width="3"/>
<path d="M25 29.5C29.6944 29.5 33.5 25.6944 33.5 21C33.5 16.3056 29.6944 12.5 25 12.5C20.3056 12.5 16.5 16.3056 16.5 21C16.5 25.6944 20.3056 29.5 25 29.5Z" stroke="#131010" stroke-width="3"/>
<path fill-rule="evenodd" clip-rule="evenodd" d="M37.7529 44.4742C36.5772 38.5035 31.3136 34 24.9981 34C18.7523 34 13.5352 38.4047 12.2837 44.2772L9.69922 42.3009C11.7067 35.7575 17.7968 31 24.9981 31C32.3243 31 38.5005 35.924 40.3977 42.6431L38.4981 44L37.7529 44.4742Z" fill="#131010"/>
</g>
<defs>
<clipPath id="clip0_632_2284">
<rect width="50" height="50" fill="white"/>
</clipPath>
</defs>
</svg>
