<svg width="50" height="50" viewBox="0 0 50 50" fill="none" xmlns="http://www.w3.org/2000/svg">
<g clip-path="url(#clip0_632_2288)">
<path d="M39.7626 28.8852L43.1883 25.4816C43.2477 25.4225 43.2842 25.3442 43.2912 25.2605L44.2782 13.5066C44.2869 13.4025 44.2494 13.2997 44.1756 13.2254L37.3815 6.38739C37.3077 6.31309 37.2051 6.2749 37.101 6.28296L25.3409 7.19423C25.2572 7.20072 25.1787 7.23668 25.1192 7.29572L19.6835 12.6965L3.60284 28.6739C3.46407 28.8118 3.46394 29.0366 3.60254 29.1761L21.1696 46.8568C21.3082 46.9963 21.5331 46.9976 21.6719 46.8597L25.1895 43.3647M32.5967 44.2869L35.1552 45.6424C35.206 45.6693 35.2625 45.6836 35.3199 45.6839L43.7414 45.7331C43.9056 45.7341 44.0485 45.6223 44.0869 45.4629L46.9401 33.6207C46.9928 33.402 46.8309 33.189 46.6058 33.1809L39.1001 32.9096C38.9083 32.9026 38.7559 32.7445 38.756 32.5526L38.7594 26.9562C38.7595 26.7673 38.6117 26.6106 38.4231 26.5996L36.6047 26.4933C36.4645 26.4851 36.333 26.5602 36.2693 26.6851L32.4773 34.116M32.5967 44.2869L32.4773 34.116M32.5967 44.2869L26.1675 44.2493C25.9731 44.2482 25.8149 44.0909 25.8126 43.8965L25.7015 34.4359C25.6992 34.2381 25.859 34.0774 26.0569 34.0785L32.4773 34.116M27.9679 16.5116L14.0229 30.367M27.838 23.6676L17.5363 33.9032M48.1908 2.4418L38.5172 12.0532M38.5172 12.0532L38.4015 15.3508C38.3948 15.542 38.2377 15.6927 38.0464 15.6916L35.2291 15.6752C35.0329 15.674 34.874 15.5141 34.8742 15.318L34.8758 12.5006C34.876 12.3092 35.0277 12.1531 35.2189 12.1477L38.5172 12.0532Z" stroke="#131010" stroke-width="3" stroke-linecap="round"/>
</g>
<defs>
<clipPath id="clip0_632_2288">
<rect width="50" height="50" fill="white"/>
</clipPath>
</defs>
</svg>
