<svg width="67" height="67" viewBox="0 0 67 67" fill="none" xmlns="http://www.w3.org/2000/svg">
<path d="M56.9504 52.1091V35.1749C56.9502 34.8552 56.8696 34.5407 56.7159 34.2603C56.5814 34.0373 56.3797 33.8625 56.1397 33.7612C55.8884 33.6554 55.6233 33.5855 55.3525 33.5535C55.0669 33.5179 54.7794 33.5 54.4915 33.4999H53.6004V17.1418C53.7043 16.914 53.855 16.646 54.046 16.3311C54.2369 16.0162 54.4212 15.6678 54.5954 15.2859C54.7696 14.9007 54.927 14.5422 55.0644 14.2139C55.1862 13.9586 55.2578 13.6822 55.2754 13.3999C55.2259 13.0369 55.1475 12.6784 55.0409 12.3279C54.8848 11.7714 54.7094 11.2206 54.515 10.6763C54.3172 10.1169 54.1162 9.55851 53.912 9.00135C53.77 8.62266 53.6404 8.23944 53.5234 7.8523C53.3957 7.51986 53.1775 7.22977 52.8936 7.0148C52.6148 6.80528 52.2742 6.6945 51.9254 6.6999H45.2254C44.8676 6.71468 44.5219 6.83342 44.2305 7.0416C43.9441 7.23638 43.7317 7.52198 43.6275 7.8523C43.4944 8.24652 43.3548 8.63852 43.2087 9.02815C43.0071 9.58276 42.8161 10.1412 42.6359 10.7031C42.4416 11.2961 42.2674 11.8455 42.1099 12.3547C41.9525 12.8572 41.8754 13.2089 41.8754 13.3999C41.8754 13.6444 41.9424 13.9225 42.0865 14.2374C42.2238 14.5523 42.388 14.9007 42.5823 15.2859C42.8938 15.9104 43.2166 16.5291 43.5504 17.1418V33.4999H42.6593C42.3626 33.4984 42.066 33.5163 41.7716 33.5535C41.4977 33.5861 41.2314 33.6654 40.9843 33.788C40.7531 33.9 40.5555 34.071 40.4115 34.2838C40.2557 34.5539 40.1823 34.8636 40.2004 35.1749V52.1091C40.2004 53.2414 40.4282 54.3067 40.8805 55.3017C41.3361 56.2966 41.9458 57.1676 42.7129 57.918C44.2786 59.4509 46.3844 60.3064 48.5754 60.2999C49.691 60.2999 50.7563 60.0821 51.768 59.6466C52.7558 59.2259 53.6601 58.6313 54.4379 57.8912C55.2113 57.1554 55.8338 56.2758 56.2704 55.3017C56.7255 54.2993 56.9575 53.21 56.9504 52.1091ZM50.2504 33.4999H46.9004V16.7499C46.8999 16.4854 46.8368 16.2248 46.7162 15.9894L45.3561 13.2692L46.4281 10.0499H50.7228L51.7948 13.2659L50.4347 15.9894C50.3141 16.2248 50.251 16.4854 50.2504 16.7499V33.4999ZM43.5504 40.1999V36.8499H53.6004V40.1999H43.5504ZM53.6004 43.5499V51.9249C53.6163 52.5915 53.4824 53.2532 53.2085 53.8612C52.946 54.4661 52.5734 55.017 52.1097 55.4859C51.1701 56.4199 49.9002 56.9459 48.5754 56.9499C47.9087 56.9668 47.2468 56.8328 46.6391 56.5579C45.726 56.1747 44.946 55.5309 44.3966 54.7069C43.8473 53.8829 43.553 52.9152 43.5504 51.9249V43.5499H53.6004ZM20.1004 8.5156C20.1008 8.24097 20.0337 7.97046 19.9049 7.72789C19.7761 7.48533 19.5897 7.27814 19.362 7.12459C19.1343 6.97103 18.8724 6.87581 18.5992 6.84732C18.3261 6.81883 18.0501 6.85794 17.7956 6.9612C15.1016 8.05086 12.7798 9.89583 11.1097 12.2741C9.43966 14.6523 8.49241 17.4625 8.38199 20.3665C8.27156 23.2705 9.00267 26.1445 10.4873 28.6427C11.972 31.1409 14.1469 33.1568 16.7504 34.4479V53.5999C16.7504 55.3768 17.4563 57.081 18.7128 58.3375C19.9693 59.594 21.6735 60.2999 23.4504 60.2999C25.2274 60.2999 26.9316 59.594 28.1881 58.3375C29.4445 57.081 30.1504 55.3768 30.1504 53.5999V34.4513C32.7551 33.1612 34.9313 31.1456 36.4169 28.6472C37.9025 26.1488 38.6342 23.2742 38.5237 20.3696C38.4133 17.4651 37.4654 14.6543 35.7944 12.276C34.1234 9.89764 31.8004 8.05311 29.1052 6.96455C28.8508 6.86129 28.5748 6.82218 28.3017 6.85067C28.0285 6.87916 27.7666 6.97438 27.5389 7.12794C27.3112 7.28149 27.1247 7.48868 26.996 7.73124C26.8672 7.97381 26.8001 8.24432 26.8004 8.51895V20.0999C26.8004 20.9884 26.4475 21.8405 25.8192 22.4687C25.191 23.0969 24.3389 23.4499 23.4504 23.4499C22.562 23.4499 21.7099 23.0969 21.0816 22.4687C20.4534 21.8405 20.1004 20.9884 20.1004 20.0999V8.5156ZM11.7254 20.9441C11.7254 16.9576 13.712 13.4401 16.7504 11.3162V20.0932C16.7504 21.8701 17.4563 23.5743 18.7128 24.8308C19.9693 26.0873 21.6735 26.7932 23.4504 26.7932C25.2274 26.7932 26.9316 26.0873 28.1881 24.8308C29.4445 23.5743 30.1504 21.8701 30.1504 20.0932V11.3162C31.8848 12.5236 33.2607 14.1773 34.1327 16.1022C35.0047 18.0272 35.3403 20.152 35.1042 22.2521C34.8681 24.3521 34.069 26.3493 32.7913 28.0326C31.5136 29.7159 29.8048 31.0227 27.8456 31.8148C27.5369 31.9401 27.2726 32.1546 27.0864 32.4309C26.9002 32.7072 26.8006 33.0327 26.8004 33.3659V53.5999C26.8004 54.4884 26.4475 55.3405 25.8192 55.9687C25.191 56.597 24.3389 56.9499 23.4504 56.9499C22.562 56.9499 21.7099 56.597 21.0816 55.9687C20.4534 55.3405 20.1004 54.4884 20.1004 53.5999V33.3659C20.1002 33.0327 20.0007 32.7072 19.8145 32.4309C19.6283 32.1546 19.364 31.9401 19.0552 31.8148C16.8888 30.9384 15.0336 29.4346 13.7276 27.4966C12.4216 25.5585 11.7244 23.2744 11.7254 20.9374V20.9441Z" fill="white"/>
</svg>
