<svg width="71" height="71" viewBox="0 0 71 71" fill="none" xmlns="http://www.w3.org/2000/svg">
<path d="M30.381 51.3838V61.6856C30.3677 62.0728 30.2041 62.4396 29.9249 62.7087C29.6457 62.9778 29.2727 63.1281 28.8846 63.1278H18.0486C16.2669 62.8282 14.654 61.8951 13.5078 60.5009" stroke="white" stroke-width="3" stroke-linecap="round" stroke-linejoin="round"/>
<path d="M52.8261 32.2747L60.4629 27.1238C60.6336 27.0486 60.8181 27.0098 61.0047 27.0098C61.1913 27.0098 61.3758 27.0486 61.5465 27.1238C61.7458 27.1471 61.9374 27.2147 62.1071 27.3217C62.2768 27.4287 62.4202 27.5723 62.5269 27.7419L68.4609 36.6015C68.8155 37.3138 69 38.0983 69 38.8936C69 39.689 68.8155 40.4735 68.4609 41.1858M13.5068 60.5532C13.5068 60.5532 7.88241 55.6598 20.9372 42.6281H26.7681L18.0476 28.257H2L6.38601 33.8715C6.38601 33.8715 3.4448 34.3866 3.4448 38.4558C4.9875 46.5166 8.43729 54.0927 13.5068 60.5532Z" stroke="white" stroke-width="3" stroke-linecap="round" stroke-linejoin="round"/>
<path d="M21.8659 21.5087L14.8999 18.3151C14.5563 18.1379 14.2916 17.8387 14.1579 17.4765C14.0242 17.1142 14.0312 16.7151 14.1775 16.3578L20.0599 4.61371C20.4529 3.9184 21.0024 3.32379 21.6651 2.87683C22.3278 2.42987 23.0855 2.14279 23.8783 2.03826M23.8783 2.03826C23.8783 2.03826 30.2251 2.03826 38.2748 17.491L34.0952 22.6419H51.4328L57.5732 6.46803L50.3492 8.68292C50.2442 7.56531 49.8388 6.49676 49.1757 5.59012C48.5127 4.68348 47.6167 3.97241 46.5824 3.53202C43.0258 2.35668 39.2816 1.85019 35.54 2.03826H23.8783ZM68.6672 40.67C68.6672 40.67 67.016 47.3662 49.9364 45.8209V41.3396L39.926 54.4229L49.4204 69L49.9364 62.1493C49.9364 62.1493 51.8456 64.4672 55.0964 62.1493C60.5483 55.6177 65.1115 48.3954 68.6672 40.67Z" stroke="white" stroke-width="3" stroke-linecap="round" stroke-linejoin="round"/>
</svg>
