<svg width="25" height="25" viewBox="0 0 25 25" fill="none" xmlns="http://www.w3.org/2000/svg">
<g clip-path="url(#clip0_627_2309)">
<path fill-rule="evenodd" clip-rule="evenodd" d="M20.5996 4.61455C20.857 4.5062 21.1388 4.46884 21.4155 4.50634C21.6923 4.54383 21.954 4.65483 22.1733 4.82776C22.3926 5.00069 22.5615 5.22925 22.6625 5.48963C22.7635 5.75002 22.7929 6.03271 22.7475 6.3083L20.385 20.6385C20.1559 22.0208 18.6392 22.8135 17.3715 22.125C16.3111 21.5489 14.7361 20.6614 13.3194 19.7354C12.6111 19.2718 10.4413 17.7875 10.708 16.7312C10.9371 15.8281 14.583 12.4343 16.6663 10.4166C17.484 9.62392 17.1111 9.16663 16.1455 9.8958C13.7465 11.7062 9.89754 14.4593 8.62462 15.2343C7.50171 15.9177 6.91629 16.0343 6.21629 15.9177C4.93921 15.7052 3.75483 15.376 2.78816 14.975C1.48191 14.4333 1.54546 12.6375 2.78712 12.1145L20.5996 4.61455Z" fill="white"/>
</g>
<defs>
<clipPath id="clip0_627_2309">
<rect width="25" height="25" fill="white"/>
</clipPath>
</defs>
</svg>
