<svg width="25" height="25" viewBox="0 0 25 25" fill="none" xmlns="http://www.w3.org/2000/svg">
<path d="M12.5026 2.08337C18.2557 2.08337 22.9193 6.74692 22.9193 12.5C22.9193 18.2532 18.2557 22.9167 12.5026 22.9167C10.6618 22.9197 8.8533 22.4325 7.26304 21.5052L2.09012 22.9167L3.49845 17.7417C2.57042 16.151 2.08288 14.3417 2.08595 12.5C2.08595 6.74692 6.74949 2.08337 12.5026 2.08337ZM8.95262 7.60421L8.74428 7.61254C8.60941 7.62075 8.4776 7.65619 8.35678 7.71671C8.24379 7.7807 8.14064 7.86069 8.05054 7.95421C7.92554 8.07192 7.8547 8.174 7.77866 8.27296C7.39337 8.7739 7.18592 9.38891 7.18908 10.0209C7.19116 10.5313 7.32449 11.0282 7.53283 11.4927C7.95887 12.4323 8.65991 13.4271 9.58491 14.349C9.80783 14.5709 10.0266 14.7938 10.262 15.0011C11.4114 16.013 12.781 16.7428 14.262 17.1323L14.8537 17.223C15.0464 17.2334 15.2391 17.2188 15.4328 17.2094C15.7362 17.1938 16.0324 17.1116 16.3005 16.9688C16.4369 16.8985 16.5701 16.8221 16.6995 16.7396C16.6995 16.7396 16.7443 16.7105 16.8297 16.6459C16.9703 16.5417 17.0568 16.4677 17.1735 16.3459C17.2599 16.2563 17.3349 16.1511 17.3922 16.0313C17.4735 15.8615 17.5547 15.5375 17.588 15.2677C17.613 15.0615 17.6057 14.949 17.6026 14.8792C17.5985 14.7677 17.5057 14.6521 17.4047 14.6032L16.7985 14.3313C16.7985 14.3313 15.8922 13.9365 15.338 13.6844C15.28 13.6591 15.2179 13.6446 15.1547 13.6417C15.0834 13.6344 15.0114 13.6424 14.9435 13.6652C14.8756 13.688 14.8133 13.7251 14.761 13.774C14.7557 13.7719 14.686 13.8313 13.9328 14.7438C13.8896 14.8019 13.8301 14.8458 13.7618 14.8699C13.6935 14.894 13.6196 14.8973 13.5495 14.8792C13.4816 14.861 13.4151 14.838 13.3505 14.8105C13.2214 14.7563 13.1766 14.7355 13.088 14.698C12.4902 14.4371 11.9367 14.0846 11.4474 13.6532C11.3162 13.5386 11.1943 13.4136 11.0693 13.2927C10.6595 12.9003 10.3023 12.4563 10.0068 11.9719L9.94533 11.873C9.90118 11.8065 9.86549 11.7347 9.83908 11.6594C9.79949 11.5063 9.90262 11.3834 9.90262 11.3834C9.90262 11.3834 10.1557 11.1063 10.2735 10.9563C10.388 10.8105 10.4849 10.6688 10.5474 10.5677C10.6703 10.3698 10.7089 10.1667 10.6443 10.0094C10.3526 9.29692 10.0505 8.58754 9.74012 7.88337C9.67866 7.74379 9.49637 7.64379 9.33074 7.624C9.27449 7.61775 9.21824 7.6115 9.16199 7.60733C9.0221 7.60038 8.88193 7.60177 8.7422 7.6115L8.95158 7.60317L8.95262 7.60421Z" fill="white"/>
</svg>
