<svg width="25" height="25" viewBox="0 0 25 25" fill="none" xmlns="http://www.w3.org/2000/svg">
<path d="M15.6997 2.08337H9.30807C3.47057 2.08337 2.08203 3.47192 2.08203 9.299V15.6907C2.08203 21.5271 3.46016 22.9167 9.29766 22.9167H15.6893C21.5258 22.9167 22.9154 21.5386 22.9154 15.7011V9.30942C22.9154 3.47192 21.5372 2.08337 15.6997 2.08337ZM18.9008 16.948H17.381C16.806 16.948 16.6331 16.4823 15.6018 15.4511C14.7018 14.5834 14.3216 14.475 14.0935 14.475C13.7789 14.475 13.6924 14.5615 13.6924 14.9959V16.3625C13.6924 16.7323 13.5727 16.949 12.607 16.949C11.6699 16.886 10.7611 16.6013 9.95557 16.1183C9.15002 15.6353 8.47075 14.9678 7.9737 14.1709C6.79367 12.7021 5.9726 10.9783 5.57578 9.1365C5.57578 8.90837 5.66224 8.70212 6.09661 8.70212H7.61536C8.00599 8.70212 8.14661 8.87608 8.29974 9.27712C9.03724 11.448 10.2956 13.3355 10.806 13.3355C11.0018 13.3355 11.0872 13.249 11.0872 12.7605V10.525C11.0227 9.50525 10.481 9.41879 10.481 9.05004C10.4879 8.95278 10.5325 8.86205 10.6052 8.7971C10.678 8.73215 10.7731 8.69808 10.8706 8.70212H13.2581C13.5841 8.70212 13.6924 8.86462 13.6924 9.25525V12.2719C13.6924 12.598 13.8331 12.7063 13.931 12.7063C14.1268 12.7063 14.2779 12.598 14.6362 12.2396C15.4058 11.301 16.0347 10.2553 16.5029 9.13546C16.5507 9.00094 16.6413 8.88577 16.7607 8.80753C16.8801 8.72929 17.0219 8.69227 17.1643 8.70212H18.6841C19.1393 8.70212 19.2362 8.93025 19.1393 9.25525C18.5867 10.4932 17.9029 11.6683 17.0997 12.7605C16.9362 13.0105 16.8706 13.1407 17.0997 13.4334C17.2508 13.6615 17.7831 14.1063 18.1414 14.5292C18.6621 15.0486 19.0946 15.6496 19.4216 16.3084C19.5518 16.7313 19.3341 16.948 18.9008 16.948Z" fill="white"/>
</svg>
