<svg width="142" height="18" viewBox="0 0 142 18" fill="none" xmlns="http://www.w3.org/2000/svg">
<path d="M8.09327 17.6839H0V16.9295H2.15821V1.67382H0V0.919422H8.09327V1.67382H5.93507V8.88254L13.6507 1.67382H11.4924V0.919422H16.4833C16.4833 1.01256 16.4743 1.10569 16.4563 1.19883C16.4203 1.51549 16.1865 1.67382 15.7549 1.67382C15.647 1.67382 15.5301 1.68314 15.4042 1.70176C15.0445 1.7949 14.46 2.22332 13.6507 2.98704L9.55006 6.81492L16.1326 16.9295H16.3754C16.7531 16.9667 16.9959 17.2182 17.1038 17.6839L11.9511 17.7118L6.79835 9.41341L5.93507 10.2237V16.9295H7.36488C7.74256 16.9667 7.98536 17.2182 8.09327 17.6839Z" fill="white"/>
<path d="M63.792 1.67382V0.919422H69.2415V1.67382H67.0833V17.5442L65.5456 17.8236L55.1592 5.27818V16.9295H56.7239C57.1016 16.9667 57.3444 17.2182 57.4523 17.6839H51.8679V16.9295H54.0261V1.67382H51.8679V0.919422H56.4271L65.9502 12.4869V1.67382H63.792Z" fill="white"/>
<path d="M69.9159 0.919422H77.8743C79.8706 0.919422 81.6152 1.41304 83.108 2.40028C85.3741 3.92771 86.5071 6.24679 86.5071 9.35753C86.5071 11.7977 85.7158 13.7908 84.1331 15.3369C82.5145 16.9015 80.4552 17.6839 77.9553 17.6839H69.9159V16.9295H72.0741V1.67382H69.9159V0.919422ZM77.9553 1.67382H75.851V16.9295H77.9013C78.7466 16.9295 79.457 16.7525 80.0325 16.3986C81.5253 15.4859 82.2717 13.0923 82.2717 9.21783C82.2717 7.2806 82.0918 5.72523 81.7321 4.55172C81.1026 2.63312 79.8437 1.67382 77.9553 1.67382Z" fill="white"/>
<path d="M97.0284 0.640015C99.0607 0.640015 100.832 1.20814 102.343 2.3444C104.447 3.94634 105.499 6.28405 105.499 9.35753C105.499 11.8908 104.663 13.9771 102.99 15.6163C101.354 17.1809 99.3395 17.9633 96.9475 17.9633C94.8432 17.9633 93.0087 17.3393 91.444 16.0913C89.4117 14.4521 88.3956 12.1702 88.3956 9.24577C88.3956 6.69385 89.2499 4.6076 90.9584 2.98704C92.6131 1.42236 94.6364 0.640015 97.0284 0.640015ZM97.0284 17.153C97.8557 17.153 98.5481 16.9667 99.1057 16.5942C100.544 15.6442 101.264 13.1854 101.264 9.21783C101.264 7.54138 101.129 6.13503 100.859 4.99877C100.284 2.63312 98.9798 1.4503 96.9475 1.4503C96.336 1.4503 95.7874 1.56206 95.3018 1.78559C93.5213 2.56793 92.631 5.09191 92.631 9.35753C92.631 11.5928 92.8559 13.3251 93.3055 14.5545C93.9529 16.2868 95.1939 17.153 97.0284 17.153Z" fill="white"/>
<path d="M116.021 0.640015C118.053 0.640015 119.824 1.20814 121.335 2.3444C123.439 3.94634 124.492 6.28405 124.492 9.35753C124.492 11.8908 123.655 13.9771 121.983 15.6163C120.346 17.1809 118.332 17.9633 115.94 17.9633C113.835 17.9633 112.001 17.3393 110.436 16.0913C108.404 14.4521 107.388 12.1702 107.388 9.24577C107.388 6.69385 108.242 4.6076 109.951 2.98704C111.605 1.42236 113.629 0.640015 116.021 0.640015ZM116.021 17.153C116.848 17.153 117.54 16.9667 118.098 16.5942C119.537 15.6442 120.256 13.1854 120.256 9.21783C120.256 7.54138 120.121 6.13503 119.851 4.99877C119.276 2.63312 117.972 1.4503 115.94 1.4503C115.328 1.4503 114.78 1.56206 114.294 1.78559C112.514 2.56793 111.623 5.09191 111.623 9.35753C111.623 11.5928 111.848 13.3251 112.298 14.5545C112.945 16.2868 114.186 17.153 116.021 17.153Z" fill="white"/>
<path d="M134.069 17.6839H125.975V16.9295H128.134V1.67382H125.975V0.919422H134.986C136.425 0.919422 137.648 1.27334 138.655 1.98117C139.842 2.81939 140.435 3.92771 140.435 5.30612C140.435 5.71592 140.381 6.1164 140.273 6.50757C139.842 8.09088 138.682 9.15263 136.793 9.69282L140.948 16.9574H141.299C141.389 16.9574 141.478 16.9667 141.568 16.9854C141.856 17.0412 142 17.2741 142 17.6839L137.252 17.7118L133.232 10.0281H131.91V16.9295H134.069V17.6839ZM133.367 1.67382H131.91V9.18989H133.583C134.123 9.18989 134.599 9.05018 135.013 8.77078C135.948 8.15608 136.416 7.04776 136.416 5.44583C136.416 4.92427 136.353 4.42133 136.227 3.93702C135.795 2.42822 134.842 1.67382 133.367 1.67382Z" fill="white"/>
</svg>
