<svg width="24" height="24" viewBox="0 0 24 24" fill="none" xmlns="http://www.w3.org/2000/svg">
<g id="mingcute:telegram-fill" clip-path="url(#clip0_475_9393)">
<g id="Group">
<path id="Vector" fill-rule="evenodd" clip-rule="evenodd" d="M19.7721 4.42997C20.0193 4.32596 20.2897 4.29008 20.5554 4.32608C20.8211 4.36208 21.0723 4.46863 21.2828 4.63465C21.4934 4.80067 21.6555 5.02008 21.7525 5.27005C21.8495 5.52002 21.8777 5.79141 21.8341 6.05597L19.5661 19.813C19.3461 21.14 17.8901 21.901 16.6731 21.24C15.6551 20.687 14.1431 19.835 12.7831 18.946C12.1031 18.501 10.0201 17.076 10.2761 16.062C10.4961 15.195 13.9961 11.937 15.9961 9.99997C16.7811 9.23897 16.4231 8.79997 15.4961 9.49997C13.1931 11.238 9.49814 13.881 8.27614 14.625C7.19814 15.281 6.63614 15.393 5.96414 15.281C4.73814 15.077 3.60114 14.761 2.67314 14.376C1.41914 13.856 1.48014 12.132 2.67214 11.63L19.7721 4.42997Z" fill="white"/>
</g>
</g>
<defs>
<clipPath id="clip0_475_9393">
<rect width="24" height="24" fill="white" transform="translate(-0.00488281)"/>
</clipPath>
</defs>
</svg>
